0
SECTION
2
HEADER
9
$ACADVER
1
AC1009
0
ENDSEC
0
SECTION
2
TABLES
0
TABLE
2
LAYER
70
10
0
LAYER
2
HOLES
70
0
62
7
6
CONTINUOUS
0
LAYER
2
DIMS
70
0
62
3
6
CONTINUOUS
0
LAYER
2
TEXT
70
0
62
2
6
CONTINUOUS
0
LAYER
2
CENTER
70
0
62
1
6
CONTINUOUS
0
ENDTABLE
0
ENDSEC
0
SECTION
2
ENTITIES
0
CIRCLE
8
HOLES
10
0.0000
20
0.0000
30
0.0
40
5.0000
0
LINE
8
CENTER
10
-2.5000
20
0.0000
30
0.0
11
2.5000
21
0.0000
31
0.0
0
LINE
8
CENTER
10
0.0000
20
-2.5000
30
0.0
11
0.0000
21
2.5000
31
0.0
0
TEXT
8
TEXT
10
0.0000
20
7.0000
30
0.0
40
1.0000
1
Ø10mm
72
1
11
0.0000
21
7.0000
31
0.0
73
2
0
CIRCLE
8
HOLES
10
-11.7500
20
11.7500
30
0.0
40
2.0000
0
LINE
8
CENTER
10
-12.7500
20
11.7500
30
0.0
11
-10.7500
21
11.7500
31
0.0
0
LINE
8
CENTER
10
-11.7500
20
10.7500
30
0.0
11
-11.7500
21
12.7500
31
0.0
0
CIRCLE
8
HOLES
10
11.7500
20
11.7500
30
0.0
40
2.0000
0
LINE
8
CENTER
10
10.7500
20
11.7500
30
0.0
11
12.7500
21
11.7500
31
0.0
0
LINE
8
CENTER
10
11.7500
20
10.7500
30
0.0
11
11.7500
21
12.7500
31
0.0
0
CIRCLE
8
HOLES
10
-11.7500
20
-11.7500
30
0.0
40
2.0000
0
LINE
8
CENTER
10
-12.7500
20
-11.7500
30
0.0
11
-10.7500
21
-11.7500
31
0.0
0
LINE
8
CENTER
10
-11.7500
20
-12.7500
30
0.0
11
-11.7500
21
-10.7500
31
0.0
0
CIRCLE
8
HOLES
10
11.7500
20
-11.7500
30
0.0
40
2.0000
0
LINE
8
CENTER
10
10.7500
20
-11.7500
30
0.0
11
12.7500
21
-11.7500
31
0.0
0
LINE
8
CENTER
10
11.7500
20
-12.7500
30
0.0
11
11.7500
21
-10.7500
31
0.0
0
TEXT
8
TEXT
10
15.2500
20
14.2500
30
0.0
40
1.0000
1
Ø4mm
72
1
11
15.2500
21
14.2500
31
0.0
73
2
0
LINE
8
DIMS
10
-11.7500
20
19.7500
30
0.0
11
11.7500
21
19.7500
31
0.0
0
LINE
8
DIMS
10
-11.7500
20
19.7500
30
0.0
11
-14.2500
21
20.4500
31
0.0
0
LINE
8
DIMS
10
-11.7500
20
19.7500
30
0.0
11
-14.2500
21
19.0500
31
0.0
0
LINE
8
DIMS
10
11.7500
20
19.7500
30
0.0
11
14.2500
21
19.0500
31
0.0
0
LINE
8
DIMS
10
11.7500
20
19.7500
30
0.0
11
14.2500
21
20.4500
31
0.0
0
LINE
8
DIMS
10
-11.7500
20
12.7500
30
0.0
11
-11.7500
21
20.2500
31
0.0
0
LINE
8
DIMS
10
11.7500
20
12.7500
30
0.0
11
11.7500
21
20.2500
31
0.0
0
TEXT
8
TEXT
10
0.0000
20
20.9500
30
0.0
40
1.2000
1
23.5mm
72
1
11
0.0000
21
20.9500
31
0.0
73
2
0
LINE
8
DIMS
10
-11.7500
20
-19.7500
30
0.0
11
11.7500
21
-19.7500
31
0.0
0
LINE
8
DIMS
10
-11.7500
20
-19.7500
30
0.0
11
-14.2500
21
-19.0500
31
0.0
0
LINE
8
DIMS
10
-11.7500
20
-19.7500
30
0.0
11
-14.2500
21
-20.4500
31
0.0
0
LINE
8
DIMS
10
11.7500
20
-19.7500
30
0.0
11
14.2500
21
-20.4500
31
0.0
0
LINE
8
DIMS
10
11.7500
20
-19.7500
30
0.0
11
14.2500
21
-19.0500
31
0.0
0
LINE
8
DIMS
10
-11.7500
20
-12.7500
30
0.0
11
-11.7500
21
-20.2500
31
0.0
0
LINE
8
DIMS
10
11.7500
20
-12.7500
30
0.0
11
11.7500
21
-20.2500
31
0.0
0
TEXT
8
TEXT
10
0.0000
20
-18.5500
30
0.0
40
1.2000
1
23.5mm
72
1
11
0.0000
21
-18.5500
31
0.0
73
2
0
LINE
8
DIMS
10
-19.7500
20
-11.7500
30
0.0
11
-19.7500
21
11.7500
31
0.0
0
LINE
8
DIMS
10
-19.7500
20
-11.7500
30
0.0
11
-20.4500
21
-14.2500
31
0.0
0
LINE
8
DIMS
10
-19.7500
20
-11.7500
30
0.0
11
-19.0500
21
-14.2500
31
0.0
0
LINE
8
DIMS
10
-19.7500
20
11.7500
30
0.0
11
-19.0500
21
14.2500
31
0.0
0
LINE
8
DIMS
10
-19.7500
20
11.7500
30
0.0
11
-20.4500
21
14.2500
31
0.0
0
LINE
8
DIMS
10
-12.7500
20
-11.7500
30
0.0
11
-20.2500
21
-11.7500
31
0.0
0
LINE
8
DIMS
10
-12.7500
20
11.7500
30
0.0
11
-20.2500
21
11.7500
31
0.0
0
TEXT
8
TEXT
10
-21.2500
20
0.0000
30
0.0
40
1.2000
1
23.5mm
72
2
11
-21.2500
21
0.0000
31
0.0
73
2
0
LINE
8
DIMS
10
19.7500
20
-11.7500
30
0.0
11
19.7500
21
11.7500
31
0.0
0
LINE
8
DIMS
10
19.7500
20
-11.7500
30
0.0
11
19.0500
21
-14.2500
31
0.0
0
LINE
8
DIMS
10
19.7500
20
-11.7500
30
0.0
11
20.4500
21
-14.2500
31
0.0
0
LINE
8
DIMS
10
19.7500
20
11.7500
30
0.0
11
20.4500
21
14.2500
31
0.0
0
LINE
8
DIMS
10
19.7500
20
11.7500
30
0.0
11
19.0500
21
14.2500
31
0.0
0
LINE
8
DIMS
10
12.7500
20
-11.7500
30
0.0
11
20.2500
21
-11.7500
31
0.0
0
LINE
8
DIMS
10
12.7500
20
11.7500
30
0.0
11
20.2500
21
11.7500
31
0.0
0
TEXT
8
TEXT
10
18.2500
20
0.0000
30
0.0
40
1.2000
1
23.5mm
72
2
11
18.2500
21
0.0000
31
0.0
73
2
0
LINE
8
DIMS
10
-8.5680
20
12.1036
30
0.0
11
12.1036
21
-8.5680
31
0.0
0
LINE
8
DIMS
10
-8.5680
20
12.1036
30
0.0
11
-9.8408
21
14.3663
31
0.0
0
LINE
8
DIMS
10
-8.5680
20
12.1036
30
0.0
11
-10.8308
21
13.3763
31
0.0
0
LINE
8
DIMS
10
12.1036
20
-8.5680
30
0.0
11
13.3763
21
-10.8308
31
0.0
0
LINE
8
DIMS
10
12.1036
20
-8.5680
30
0.0
11
14.3663
21
-9.8408
31
0.0
0
TEXT
8
TEXT
10
2.8284
20
2.8284
30
0.0
40
1.2000
1
33.23mm
72
1
11
2.8284
21
2.8284
31
0.0
73
2
0
LINE
8
DIMS
10
8.5680
20
12.1036
30
0.0
11
-12.1036
21
-8.5680
31
0.0
0
LINE
8
DIMS
10
8.5680
20
12.1036
30
0.0
11
10.8308
21
13.3763
31
0.0
0
LINE
8
DIMS
10
8.5680
20
12.1036
30
0.0
11
9.8408
21
14.3663
31
0.0
0
LINE
8
DIMS
10
-12.1036
20
-8.5680
30
0.0
11
-14.3663
21
-9.8408
31
0.0
0
LINE
8
DIMS
10
-12.1036
20
-8.5680
30
0.0
11
-13.3763
21
-10.8308
31
0.0
0
TEXT
8
TEXT
10
-2.8284
20
2.8284
30
0.0
40
1.2000
1
33.23mm
72
1
11
-2.8284
21
2.8284
31
0.0
73
2
0
ENDSEC
0
EOF