  0
SECTION
  2
HEADER
  9
$ACADVER
  1
AC1009
  9
$FILLMODE
 70
 0
  9
$SPLFRAME
 70
 1
  9
$EXTMIN
 10
0
 20
0
 30
0.0
  9
$EXTMAX
 10
1058.33
 20
1058.33
 30
0.0
  0
ENDSEC
  0
SECTION
  2
TABLES
  0
TABLE
  2
LAYER
 70
1
  0
LAYER
  2
0
 70
     0
 62
     7
  6
CONTINUOUS
  0
ENDTAB
  0
ENDSEC
  0
SECTION
  2
ENTITIES
  0
POLYLINE
  8
0
 62
     0
 66
     1
 10
0
 20
0
 30
0.0
 70
     1
 40
0.566929
 41
0.566929
  0
VERTEX
  8
0
 10
10.0996
 20
10.0004
 30
0.0
 40
0.2
 41
0.2
  0
VERTEX
  8
0
 10
50.1001
 20
10.0004
 30
0.0
 40
0.2
 41
0.2
  0
VERTEX
  8
0
 10
50.1167
 20
10.0004
 30
0.0
 40
0.2
 41
0.2
  0
VERTEX
  8
0
 10
50.1703
 20
10.0294
 30
0.0
 40
0.2
 41
0.2
  0
VERTEX
  8
0
 10
50.2006
 20
10.0831
 30
0.0
 40
0.2
 41
0.2
  0
VERTEX
  8
0
 10
50.2006
 20
10.0996
 30
0.0
 40
0.2
 41
0.2
  0
VERTEX
  8
0
 10
50.2006
 20
30.1005
 30
0.0
 40
0.2
 41
0.2
  0
VERTEX
  8
0
 10
50.2006
 20
30.1184
 30
0.0
 40
0.2
 41
0.2
  0
VERTEX
  8
0
 10
50.1703
 20
30.1708
 30
0.0
 40
0.2
 41
0.2
  0
VERTEX
  8
0
 10
50.1167
 20
30.1997
 30
0.0
 40
0.2
 41
0.2
  0
VERTEX
  8
0
 10
50.1001
 20
30.1997
 30
0.0
 40
0.2
 41
0.2
  0
VERTEX
  8
0
 10
42.9493
 20
30.1997
 30
0.0
 40
0.2
 41
0.2
  0
VERTEX
  8
0
 10
42.9383
 20
30.1997
 30
0.0
 40
0.2
 41
0.2
  0
VERTEX
  8
0
 10
42.9066
 20
30.1859
 30
0.0
 40
0.2
 41
0.2
  0
VERTEX
  8
0
 10
42.9122
 20
30.1625
 30
0.0
 40
0.2
 41
0.2
  0
VERTEX
  8
0
 10
42.9341
 20
30.1584
 30
0.0
 40
0.2
 41
0.2
  0
VERTEX
  8
0
 10
42.9493
 20
30.1901
 30
0.0
 40
0.2
 41
0.2
  0
VERTEX
  8
0
 10
42.9493
 20
30.1997
 30
0.0
 40
0.2
 41
0.2
  0
VERTEX
  8
0
 10
42.9493
 20
33.1005
 30
0.0
 40
0.2
 41
0.2
  0
VERTEX
  8
0
 10
42.9493
 20
33.1184
 30
0.0
 40
0.2
 41
0.2
  0
VERTEX
  8
0
 10
42.9204
 20
33.1707
 30
0.0
 40
0.2
 41
0.2
  0
VERTEX
  8
0
 10
42.8667
 20
33.1997
 30
0.0
 40
0.2
 41
0.2
  0
VERTEX
  8
0
 10
42.8502
 20
33.1997
 30
0.0
 40
0.2
 41
0.2
  0
VERTEX
  8
0
 10
38.3508
 20
33.1997
 30
0.0
 40
0.2
 41
0.2
  0
VERTEX
  8
0
 10
38.3328
 20
33.1997
 30
0.0
 40
0.2
 41
0.2
  0
VERTEX
  8
0
 10
38.2792
 20
33.1707
 30
0.0
 40
0.2
 41
0.2
  0
VERTEX
  8
0
 10
38.2503
 20
33.1184
 30
0.0
 40
0.2
 41
0.2
  0
VERTEX
  8
0
 10
38.2503
 20
33.1005
 30
0.0
 40
0.2
 41
0.2
  0
VERTEX
  8
0
 10
38.2503
 20
30.1997
 30
0.0
 40
0.2
 41
0.2
  0
VERTEX
  8
0
 10
38.2503
 20
30.1901
 30
0.0
 40
0.2
 41
0.2
  0
VERTEX
  8
0
 10
38.264
 20
30.1584
 30
0.0
 40
0.2
 41
0.2
  0
VERTEX
  8
0
 10
38.2873
 20
30.1625
 30
0.0
 40
0.2
 41
0.2
  0
VERTEX
  8
0
 10
38.2916
 20
30.1859
 30
0.0
 40
0.2
 41
0.2
  0
VERTEX
  8
0
 10
38.2598
 20
30.1997
 30
0.0
 40
0.2
 41
0.2
  0
VERTEX
  8
0
 10
38.2503
 20
30.1997
 30
0.0
 40
0.2
 41
0.2
  0
VERTEX
  8
0
 10
32.4501
 20
30.1997
 30
0.0
 40
0.2
 41
0.2
  0
VERTEX
  8
0
 10
32.439
 20
30.1997
 30
0.0
 40
0.2
 41
0.2
  0
VERTEX
  8
0
 10
32.4073
 20
30.1859
 30
0.0
 40
0.2
 41
0.2
  0
VERTEX
  8
0
 10
32.4115
 20
30.1625
 30
0.0
 40
0.2
 41
0.2
  0
VERTEX
  8
0
 10
32.4349
 20
30.1584
 30
0.0
 40
0.2
 41
0.2
  0
VERTEX
  8
0
 10
32.4501
 20
30.1901
 30
0.0
 40
0.2
 41
0.2
  0
VERTEX
  8
0
 10
32.4501
 20
30.1997
 30
0.0
 40
0.2
 41
0.2
  0
VERTEX
  8
0
 10
32.4501
 20
33.1005
 30
0.0
 40
0.2
 41
0.2
  0
VERTEX
  8
0
 10
32.4501
 20
33.1184
 30
0.0
 40
0.2
 41
0.2
  0
VERTEX
  8
0
 10
32.4197
 20
33.1707
 30
0.0
 40
0.2
 41
0.2
  0
VERTEX
  8
0
 10
32.366
 20
33.1997
 30
0.0
 40
0.2
 41
0.2
  0
VERTEX
  8
0
 10
32.3494
 20
33.1997
 30
0.0
 40
0.2
 41
0.2
  0
VERTEX
  8
0
 10
27.8501
 20
33.1997
 30
0.0
 40
0.2
 41
0.2
  0
VERTEX
  8
0
 10
27.8322
 20
33.1997
 30
0.0
 40
0.2
 41
0.2
  0
VERTEX
  8
0
 10
27.7785
 20
33.1707
 30
0.0
 40
0.2
 41
0.2
  0
VERTEX
  8
0
 10
27.7496
 20
33.1184
 30
0.0
 40
0.2
 41
0.2
  0
VERTEX
  8
0
 10
27.7496
 20
33.1005
 30
0.0
 40
0.2
 41
0.2
  0
VERTEX
  8
0
 10
27.7496
 20
30.1997
 30
0.0
 40
0.2
 41
0.2
  0
VERTEX
  8
0
 10
27.7496
 20
30.1901
 30
0.0
 40
0.2
 41
0.2
  0
VERTEX
  8
0
 10
27.7633
 20
30.1584
 30
0.0
 40
0.2
 41
0.2
  0
VERTEX
  8
0
 10
27.7868
 20
30.1625
 30
0.0
 40
0.2
 41
0.2
  0
VERTEX
  8
0
 10
27.7909
 20
30.1859
 30
0.0
 40
0.2
 41
0.2
  0
VERTEX
  8
0
 10
27.7592
 20
30.1997
 30
0.0
 40
0.2
 41
0.2
  0
VERTEX
  8
0
 10
27.7496
 20
30.1997
 30
0.0
 40
0.2
 41
0.2
  0
VERTEX
  8
0
 10
21.9494
 20
30.1997
 30
0.0
 40
0.2
 41
0.2
  0
VERTEX
  8
0
 10
21.9384
 20
30.1997
 30
0.0
 40
0.2
 41
0.2
  0
VERTEX
  8
0
 10
21.9067
 20
30.1859
 30
0.0
 40
0.2
 41
0.2
  0
VERTEX
  8
0
 10
21.9122
 20
30.1625
 30
0.0
 40
0.2
 41
0.2
  0
VERTEX
  8
0
 10
21.9342
 20
30.1584
 30
0.0
 40
0.2
 41
0.2
  0
VERTEX
  8
0
 10
21.9494
 20
30.1901
 30
0.0
 40
0.2
 41
0.2
  0
VERTEX
  8
0
 10
21.9494
 20
30.1997
 30
0.0
 40
0.2
 41
0.2
  0
VERTEX
  8
0
 10
21.9494
 20
33.1005
 30
0.0
 40
0.2
 41
0.2
  0
VERTEX
  8
0
 10
21.9494
 20
33.1184
 30
0.0
 40
0.2
 41
0.2
  0
VERTEX
  8
0
 10
21.9204
 20
33.1707
 30
0.0
 40
0.2
 41
0.2
  0
VERTEX
  8
0
 10
21.8667
 20
33.1997
 30
0.0
 40
0.2
 41
0.2
  0
VERTEX
  8
0
 10
21.8502
 20
33.1997
 30
0.0
 40
0.2
 41
0.2
  0
VERTEX
  8
0
 10
17.3495
 20
33.1997
 30
0.0
 40
0.2
 41
0.2
  0
VERTEX
  8
0
 10
17.3316
 20
33.1997
 30
0.0
 40
0.2
 41
0.2
  0
VERTEX
  8
0
 10
17.2792
 20
33.1707
 30
0.0
 40
0.2
 41
0.2
  0
VERTEX
  8
0
 10
17.2503
 20
33.1184
 30
0.0
 40
0.2
 41
0.2
  0
VERTEX
  8
0
 10
17.2503
 20
33.1005
 30
0.0
 40
0.2
 41
0.2
  0
VERTEX
  8
0
 10
17.2503
 20
30.1997
 30
0.0
 40
0.2
 41
0.2
  0
VERTEX
  8
0
 10
17.2503
 20
30.1901
 30
0.0
 40
0.2
 41
0.2
  0
VERTEX
  8
0
 10
17.2641
 20
30.1584
 30
0.0
 40
0.2
 41
0.2
  0
VERTEX
  8
0
 10
17.2875
 20
30.1625
 30
0.0
 40
0.2
 41
0.2
  0
VERTEX
  8
0
 10
17.2916
 20
30.1859
 30
0.0
 40
0.2
 41
0.2
  0
VERTEX
  8
0
 10
17.2599
 20
30.1997
 30
0.0
 40
0.2
 41
0.2
  0
VERTEX
  8
0
 10
17.2503
 20
30.1997
 30
0.0
 40
0.2
 41
0.2
  0
VERTEX
  8
0
 10
10.0996
 20
30.1997
 30
0.0
 40
0.2
 41
0.2
  0
VERTEX
  8
0
 10
10.0817
 20
30.1997
 30
0.0
 40
0.2
 41
0.2
  0
VERTEX
  8
0
 10
10.0294
 20
30.1708
 30
0.0
 40
0.2
 41
0.2
  0
VERTEX
  8
0
 10
10.0004
 20
30.1184
 30
0.0
 40
0.2
 41
0.2
  0
VERTEX
  8
0
 10
10.0004
 20
30.1005
 30
0.0
 40
0.2
 41
0.2
  0
VERTEX
  8
0
 10
10.0004
 20
10.0996
 30
0.0
 40
0.2
 41
0.2
  0
VERTEX
  8
0
 10
10.0004
 20
10.0831
 30
0.0
 40
0.2
 41
0.2
  0
VERTEX
  8
0
 10
10.0294
 20
10.0294
 30
0.0
 40
0.2
 41
0.2
  0
VERTEX
  8
0
 10
10.0817
 20
10.0004
 30
0.0
 40
0.2
 41
0.2
  0
VERTEX
  8
0
 10
10.0996
 20
10.0004
 30
0.0
 40
0.2
 41
0.2
  0
SEQEND
 8
0
  0
POLYLINE
  8
0
 62
     5
 66
     1
 10
0
 20
0
 30
0.0
 70
     1
 40
0.566929
 41
0.566929
  0
VERTEX
  8
0
 10
40.5998
 20
38.9999
 30
0.0
 40
0.2
 41
0.2
  0
VERTEX
  8
0
 10
42.7496
 20
38.9999
 30
0.0
 40
0.2
 41
0.2
  0
VERTEX
  8
0
 10
42.7591
 20
38.9999
 30
0.0
 40
0.2
 41
0.2
  0
VERTEX
  8
0
 10
42.7909
 20
39.0151
 30
0.0
 40
0.2
 41
0.2
  0
VERTEX
  8
0
 10
42.7867
 20
39.0384
 30
0.0
 40
0.2
 41
0.2
  0
VERTEX
  8
0
 10
42.7634
 20
39.0426
 30
0.0
 40
0.2
 41
0.2
  0
VERTEX
  8
0
 10
42.7496
 20
39.0109
 30
0.0
 40
0.2
 41
0.2
  0
VERTEX
  8
0
 10
42.7496
 20
38.9999
 30
0.0
 40
0.2
 41
0.2
  0
VERTEX
  8
0
 10
42.7496
 20
36.1996
 30
0.0
 40
0.2
 41
0.2
  0
VERTEX
  8
0
 10
42.7496
 20
36.1901
 30
0.0
 40
0.2
 41
0.2
  0
VERTEX
  8
0
 10
42.7634
 20
36.1583
 30
0.0
 40
0.2
 41
0.2
  0
VERTEX
  8
0
 10
42.7867
 20
36.1625
 30
0.0
 40
0.2
 41
0.2
  0
VERTEX
  8
0
 10
42.7909
 20
36.1858
 30
0.0
 40
0.2
 41
0.2
  0
VERTEX
  8
0
 10
42.7591
 20
36.1996
 30
0.0
 40
0.2
 41
0.2
  0
VERTEX
  8
0
 10
42.7496
 20
36.1996
 30
0.0
 40
0.2
 41
0.2
  0
VERTEX
  8
0
 10
38.45
 20
36.1996
 30
0.0
 40
0.2
 41
0.2
  0
VERTEX
  8
0
 10
38.439
 20
36.1996
 30
0.0
 40
0.2
 41
0.2
  0
VERTEX
  8
0
 10
38.4073
 20
36.1858
 30
0.0
 40
0.2
 41
0.2
  0
VERTEX
  8
0
 10
38.4129
 20
36.1625
 30
0.0
 40
0.2
 41
0.2
  0
VERTEX
  8
0
 10
38.4348
 20
36.1583
 30
0.0
 40
0.2
 41
0.2
  0
VERTEX
  8
0
 10
38.45
 20
36.1901
 30
0.0
 40
0.2
 41
0.2
  0
VERTEX
  8
0
 10
38.45
 20
36.1996
 30
0.0
 40
0.2
 41
0.2
  0
VERTEX
  8
0
 10
38.45
 20
38.9999
 30
0.0
 40
0.2
 41
0.2
  0
VERTEX
  8
0
 10
38.45
 20
39.0109
 30
0.0
 40
0.2
 41
0.2
  0
VERTEX
  8
0
 10
38.4348
 20
39.0426
 30
0.0
 40
0.2
 41
0.2
  0
VERTEX
  8
0
 10
38.4129
 20
39.0384
 30
0.0
 40
0.2
 41
0.2
  0
VERTEX
  8
0
 10
38.4073
 20
39.0151
 30
0.0
 40
0.2
 41
0.2
  0
VERTEX
  8
0
 10
38.439
 20
38.9999
 30
0.0
 40
0.2
 41
0.2
  0
VERTEX
  8
0
 10
38.45
 20
38.9999
 30
0.0
 40
0.2
 41
0.2
  0
VERTEX
  8
0
 10
40.5998
 20
38.9999
 30
0.0
 40
0.2
 41
0.2
  0
SEQEND
 8
0
  0
POLYLINE
  8
0
 62
     5
 66
     1
 10
0
 20
0
 30
0.0
 70
     1
 40
0.566929
 41
0.566929
  0
VERTEX
  8
0
 10
30.1005
 20
38.9999
 30
0.0
 40
0.2
 41
0.2
  0
VERTEX
  8
0
 10
32.2502
 20
38.9999
 30
0.0
 40
0.2
 41
0.2
  0
VERTEX
  8
0
 10
32.2599
 20
38.9999
 30
0.0
 40
0.2
 41
0.2
  0
VERTEX
  8
0
 10
32.2916
 20
39.0151
 30
0.0
 40
0.2
 41
0.2
  0
VERTEX
  8
0
 10
32.2874
 20
39.0384
 30
0.0
 40
0.2
 41
0.2
  0
VERTEX
  8
0
 10
32.264
 20
39.0426
 30
0.0
 40
0.2
 41
0.2
  0
VERTEX
  8
0
 10
32.2502
 20
39.0109
 30
0.0
 40
0.2
 41
0.2
  0
VERTEX
  8
0
 10
32.2502
 20
38.9999
 30
0.0
 40
0.2
 41
0.2
  0
VERTEX
  8
0
 10
32.2502
 20
36.1996
 30
0.0
 40
0.2
 41
0.2
  0
VERTEX
  8
0
 10
32.2502
 20
36.1901
 30
0.0
 40
0.2
 41
0.2
  0
VERTEX
  8
0
 10
32.264
 20
36.1583
 30
0.0
 40
0.2
 41
0.2
  0
VERTEX
  8
0
 10
32.2874
 20
36.1625
 30
0.0
 40
0.2
 41
0.2
  0
VERTEX
  8
0
 10
32.2916
 20
36.1858
 30
0.0
 40
0.2
 41
0.2
  0
VERTEX
  8
0
 10
32.2599
 20
36.1996
 30
0.0
 40
0.2
 41
0.2
  0
VERTEX
  8
0
 10
32.2502
 20
36.1996
 30
0.0
 40
0.2
 41
0.2
  0
VERTEX
  8
0
 10
27.9494
 20
36.1996
 30
0.0
 40
0.2
 41
0.2
  0
VERTEX
  8
0
 10
27.9383
 20
36.1996
 30
0.0
 40
0.2
 41
0.2
  0
VERTEX
  8
0
 10
27.9067
 20
36.1858
 30
0.0
 40
0.2
 41
0.2
  0
VERTEX
  8
0
 10
27.9122
 20
36.1625
 30
0.0
 40
0.2
 41
0.2
  0
VERTEX
  8
0
 10
27.9342
 20
36.1583
 30
0.0
 40
0.2
 41
0.2
  0
VERTEX
  8
0
 10
27.9494
 20
36.1901
 30
0.0
 40
0.2
 41
0.2
  0
VERTEX
  8
0
 10
27.9494
 20
36.1996
 30
0.0
 40
0.2
 41
0.2
  0
VERTEX
  8
0
 10
27.9494
 20
38.9999
 30
0.0
 40
0.2
 41
0.2
  0
VERTEX
  8
0
 10
27.9494
 20
39.0109
 30
0.0
 40
0.2
 41
0.2
  0
VERTEX
  8
0
 10
27.9342
 20
39.0426
 30
0.0
 40
0.2
 41
0.2
  0
VERTEX
  8
0
 10
27.9122
 20
39.0384
 30
0.0
 40
0.2
 41
0.2
  0
VERTEX
  8
0
 10
27.9067
 20
39.0151
 30
0.0
 40
0.2
 41
0.2
  0
VERTEX
  8
0
 10
27.9383
 20
38.9999
 30
0.0
 40
0.2
 41
0.2
  0
VERTEX
  8
0
 10
27.9494
 20
38.9999
 30
0.0
 40
0.2
 41
0.2
  0
VERTEX
  8
0
 10
30.1005
 20
38.9999
 30
0.0
 40
0.2
 41
0.2
  0
SEQEND
 8
0
  0
POLYLINE
  8
0
 62
     5
 66
     1
 10
0
 20
0
 30
0.0
 70
     1
 40
0.566929
 41
0.566929
  0
VERTEX
  8
0
 10
19.5998
 20
38.9999
 30
0.0
 40
0.2
 41
0.2
  0
VERTEX
  8
0
 10
21.7496
 20
38.9999
 30
0.0
 40
0.2
 41
0.2
  0
VERTEX
  8
0
 10
21.7592
 20
38.9999
 30
0.0
 40
0.2
 41
0.2
  0
VERTEX
  8
0
 10
21.7909
 20
39.0151
 30
0.0
 40
0.2
 41
0.2
  0
VERTEX
  8
0
 10
21.7868
 20
39.0384
 30
0.0
 40
0.2
 41
0.2
  0
VERTEX
  8
0
 10
21.7634
 20
39.0426
 30
0.0
 40
0.2
 41
0.2
  0
VERTEX
  8
0
 10
21.7496
 20
39.0109
 30
0.0
 40
0.2
 41
0.2
  0
VERTEX
  8
0
 10
21.7496
 20
38.9999
 30
0.0
 40
0.2
 41
0.2
  0
VERTEX
  8
0
 10
21.7496
 20
36.1996
 30
0.0
 40
0.2
 41
0.2
  0
VERTEX
  8
0
 10
21.7496
 20
36.1901
 30
0.0
 40
0.2
 41
0.2
  0
VERTEX
  8
0
 10
21.7634
 20
36.1583
 30
0.0
 40
0.2
 41
0.2
  0
VERTEX
  8
0
 10
21.7868
 20
36.1625
 30
0.0
 40
0.2
 41
0.2
  0
VERTEX
  8
0
 10
21.7909
 20
36.1858
 30
0.0
 40
0.2
 41
0.2
  0
VERTEX
  8
0
 10
21.7592
 20
36.1996
 30
0.0
 40
0.2
 41
0.2
  0
VERTEX
  8
0
 10
21.7496
 20
36.1996
 30
0.0
 40
0.2
 41
0.2
  0
VERTEX
  8
0
 10
17.4501
 20
36.1996
 30
0.0
 40
0.2
 41
0.2
  0
VERTEX
  8
0
 10
17.4391
 20
36.1996
 30
0.0
 40
0.2
 41
0.2
  0
VERTEX
  8
0
 10
17.4074
 20
36.1858
 30
0.0
 40
0.2
 41
0.2
  0
VERTEX
  8
0
 10
17.4115
 20
36.1625
 30
0.0
 40
0.2
 41
0.2
  0
VERTEX
  8
0
 10
17.4349
 20
36.1583
 30
0.0
 40
0.2
 41
0.2
  0
VERTEX
  8
0
 10
17.4501
 20
36.1901
 30
0.0
 40
0.2
 41
0.2
  0
VERTEX
  8
0
 10
17.4501
 20
36.1996
 30
0.0
 40
0.2
 41
0.2
  0
VERTEX
  8
0
 10
17.4501
 20
38.9999
 30
0.0
 40
0.2
 41
0.2
  0
VERTEX
  8
0
 10
17.4501
 20
39.0109
 30
0.0
 40
0.2
 41
0.2
  0
VERTEX
  8
0
 10
17.4349
 20
39.0426
 30
0.0
 40
0.2
 41
0.2
  0
VERTEX
  8
0
 10
17.4115
 20
39.0384
 30
0.0
 40
0.2
 41
0.2
  0
VERTEX
  8
0
 10
17.4074
 20
39.0151
 30
0.0
 40
0.2
 41
0.2
  0
VERTEX
  8
0
 10
17.4391
 20
38.9999
 30
0.0
 40
0.2
 41
0.2
  0
VERTEX
  8
0
 10
17.4501
 20
38.9999
 30
0.0
 40
0.2
 41
0.2
  0
VERTEX
  8
0
 10
19.5998
 20
38.9999
 30
0.0
 40
0.2
 41
0.2
  0
SEQEND
 8
0
  0
ENDSEC
  0
EOF
