  0
SECTION
  2
HEADER
  9
$ACADVER
  1
AC1009
  9
$DWGCODEPAGE
  3
ANSI_1252
  9
$INSBASE
 10
0.0
 20
0.0
 30
0.0
  9
$EXTMIN
 10
1e+20
 20
1e+20
 30
1e+20
  9
$EXTMAX
 10
-1e+20
 20
-1e+20
 30
-1e+20
  9
$LIMMIN
 10
0.0
 20
0.0
  9
$LIMMAX
 10
420.0
 20
297.0
  9
$ORTHOMODE
 70
0
  9
$REGENMODE
 70
1
  9
$FILLMODE
 70
1
  9
$DRAGMODE
 70
2
  9
$QTEXTMODE
 70
0
  9
$MIRRTEXT
 70
1
  9
$OSMODE
 70
20583
  9
$LTSCALE
 40
1.0
  9
$ATTMODE
 70
1
  9
$TEXTSIZE
 40
2.5
  9
$TRACEWID
 40
1.0
  9
$TEXTSTYLE
  7
Standard
  9
$CLAYER
  8
0
  9
$CELTYPE
  6
ByLayer
  9
$CECOLOR
 62
256
  9
$DIMSCALE
 40
1.0
  9
$DIMASZ
 40
2.5
  9
$DIMEXO
 40
0.625
  9
$DIMDLI
 40
3.75
  9
$DIMRND
 40
0.0
  9
$DIMDLE
 40
0.0
  9
$DIMEXE
 40
1.25
  9
$DIMTP
 40
0.0
  9
$DIMTM
 40
0.0
  9
$DIMTXT
 40
2.5
  9
$DIMCEN
 40
2.5
  9
$DIMTSZ
 40
0.0
  9
$DIMTOL
 70
0
  9
$DIMLIM
 70
0
  9
$DIMTIH
 70
0
  9
$DIMTOH
 70
0
  9
$DIMSE1
 70
0
  9
$DIMSE2
 70
0
  9
$DIMTAD
 70
1
  9
$DIMZIN
 70
8
  9
$DIMBLK
  1

  9
$DIMASO
 70
1
  9
$DIMSHO
 70
1
  9
$DIMPOST
  1

  9
$DIMAPOST
  1

  9
$DIMALT
 70
0
  9
$DIMALTD
 70
3
  9
$DIMALTF
 40
0.03937007874
  9
$DIMLFAC
 40
1.0
  9
$DIMTOFL
 70
1
  9
$DIMTVP
 40
0.0
  9
$DIMTIX
 70
0
  9
$DIMSOXD
 70
0
  9
$DIMSAH
 70
0
  9
$DIMBLK1
  1

  9
$DIMBLK2
  1

  9
$DIMSTYLE
  2
ISO-25
  9
$DIMCLRD
 70
0
  9
$DIMCLRE
 70
0
  9
$DIMCLRT
 70
0
  9
$DIMTFAC
 40
1.0
  9
$DIMGAP
 40
0.625
  9
$COORDS
 70
1
  9
$ATTDIA
 70
0
  9
$ATTREQ
 70
1
  9
$HANDLING
 70
1
  9
$LUNITS
 70
2
  9
$LUPREC
 70
4
  9
$SKETCHINC
 40
1.0
  9
$FILLETRAD
 40
10.0
  9
$AUNITS
 70
0
  9
$AUPREC
 70
2
  9
$MENU
  1
.
  9
$ELEVATION
 40
0.0
  9
$PELEVATION
 40
0.0
  9
$THICKNESS
 40
0.0
  9
$LIMCHECK
 70
0
  9
$CHAMFERA
 40
0.0
  9
$CHAMFERB
 40
0.0
  9
$SKPOLY
 70
0
  9
$TDCREATE
 40
2461138.583854167
  9
$TDUPDATE
 40
2461138.583854167
  9
$TDINDWG
 40
0.0
  9
$TDUSRTIMER
 40
0.0
  9
$USRTIMER
 70
1
  9
$ANGBASE
 50
0.0
  9
$ANGDIR
 70
0
  9
$PDMODE
 70
0
  9
$PDSIZE
 40
0.0
  9
$PLINEWID
 40
0.0
  9
$SPLFRAME
 70
0
  9
$SPLINETYPE
 70
6
  9
$SPLINESEGS
 70
8
  9
$HANDSEED
  5
11C
  9
$SURFTAB1
 70
6
  9
$SURFTAB2
 70
6
  9
$SURFTYPE
 70
6
  9
$SURFU
 70
6
  9
$SURFV
 70
6
  9
$UCSNAME
  2

  9
$UCSORG
 10
0.0
 20
0.0
 30
0.0
  9
$UCSXDIR
 10
1.0
 20
0.0
 30
0.0
  9
$UCSYDIR
 10
0.0
 20
1.0
 30
0.0
  9
$PUCSNAME
  2

  9
$PUCSORG
 10
0.0
 20
0.0
 30
0.0
  9
$PUCSXDIR
 10
1.0
 20
0.0
 30
0.0
  9
$PUCSYDIR
 10
0.0
 20
1.0
 30
0.0
  9
$USERI1
 70
0
  9
$USERI2
 70
0
  9
$USERI3
 70
0
  9
$USERI4
 70
0
  9
$USERI5
 70
0
  9
$USERR1
 40
0.0
  9
$USERR2
 40
0.0
  9
$USERR3
 40
0.0
  9
$USERR4
 40
0.0
  9
$USERR5
 40
0.0
  9
$WORLDVIEW
 70
1
  9
$SHADEDGE
 70
3
  9
$SHADEDIF
 70
70
  9
$TILEMODE
 70
1
  9
$MAXACTVP
 70
64
  9
$PLIMCHECK
 70
0
  9
$PEXTMIN
 10
1e+20
 20
1e+20
 30
1e+20
  9
$PEXTMAX
 10
-1e+20
 20
-1e+20
 30
-1e+20
  9
$PLIMMIN
 10
0.0
 20
0.0
  9
$PLIMMAX
 10
420.0
 20
297.0
  9
$UNITMODE
 70
0
  9
$VISRETAIN
 70
1
  9
$PLINEGEN
 70
0
  9
$PSLTSCALE
 70
1
  0
ENDSEC
  0
SECTION
  2
TABLES
  0
TABLE
  2
VPORT
 70
1
  0
VPORT
  5
23
  2
*Active
 70
0
 10
0.0
 20
0.0
 11
1.0
 21
1.0
 12
0.0
 22
0.0
 13
0.0
 23
0.0
 14
0.5
 24
0.5
 15
0.5
 25
0.5
 16
0.0
 26
0.0
 36
1.0
 17
0.0
 27
0.0
 37
0.0
 40
1000.0
 41
1.34
 42
50.0
 43
0.0
 44
0.0
 50
0.0
 51
0.0
 71
0
 72
1000
 73
1
 74
3
 75
0
 76
0
 77
0
 78
0
  0
ENDTAB
  0
TABLE
  2
LTYPE
 70
4
  0
LTYPE
  5
24
  2
ByBlock
 70
0
  3

 72
65
 73
0
 40
0.0
  0
LTYPE
  5
25
  2
ByLayer
 70
0
  3

 72
65
 73
0
 40
0.0
  0
LTYPE
  5
26
  2
Continuous
 70
0
  3

 72
65
 73
0
 40
0.0
  0
LTYPE
  5
31
  2
CENTER
 70
0
  3
Center
 72
65
 73
4
 40
19.05
 49
12.7
 49
-2.54
 49
0.0
 49
-2.54
  0
ENDTAB
  0
TABLE
  2
LAYER
 70
6
  0
LAYER
  5
27
  2
0
 70
0
 62
7
  6
Continuous
  0
LAYER
  5
28
  2
Defpoints
 70
0
 62
7
  6
Continuous
  0
LAYER
  5
2D
  2
MARK
 70
0
 62
1
  6
Continuous
  0
LAYER
  5
2E
  2
MOUNT_HOLES
 70
0
 62
2
  6
Continuous
  0
LAYER
  5
2F
  2
SERVO_CUTOUT
 70
0
 62
5
  6
Continuous
  0
LAYER
  5
30
  2
CUT_BORDER
 70
0
 62
3
  6
Continuous
  0
ENDTAB
  0
TABLE
  2
STYLE
 70
1
  0
STYLE
  5
29
  2
Standard
 70
0
 40
0.0
 41
1.0
 50
0.0
 71
0
 42
2.5
  3
txt
  4

  0
ENDTAB
  0
TABLE
  2
VIEW
 70
0
  0
ENDTAB
  0
TABLE
  2
UCS
 70
0
  0
ENDTAB
  0
TABLE
  2
APPID
 70
3
  0
APPID
  5
2A
  2
ACAD
 70
0
  0
APPID
  5
11A
  2
HATCHBACKGROUNDCOLOR
 70
0
  0
APPID
  5
11B
  2
EZDXF
 70
0
  0
ENDTAB
  0
TABLE
  2
DIMSTYLE
 70
1
  0
DIMSTYLE
105
2B
  2
Standard
 70
0
  3

  4

  5

  6

  7

 40
1.0
 41
2.5
 42
0.625
 43
3.75
 44
1.25
 45
0.0
 46
0.0
 47
0.0
 48
0.0
140
2.5
141
2.5
142
0.0
143
0.03937007874
144
1.0
145
0.0
146
1.0
147
0.625
 71
0
 72
0
 73
0
 74
0
 75
0
 76
0
 77
1
 78
8
170
0
171
3
172
1
173
0
174
0
175
0
176
0
177
0
178
0
  0
ENDTAB
  0
ENDSEC
  0
SECTION
  2
BLOCKS
  0
BLOCK
  5
18
  8
0
  2
$Model_Space
 70
0
 10
0.0
 20
0.0
 30
0.0
  3
$Model_Space
  1

1001
EZDXF
1000
CREATED_BY_EZDXF
1000
1.4.3 @ 2026-04-07T14:00:45.419512+00:00
1000
WRITTEN_BY_EZDXF
1000
1.4.3 @ 2026-04-07T14:00:45.426909+00:00
  0
ENDBLK
  5
19
  8
0
  0
BLOCK
  5
1C
  8
0
  2
$Paper_Space
 70
0
 10
0.0
 20
0.0
 30
0.0
  3
$Paper_Space
  1

  0
ENDBLK
  5
1D
  8
0
  0
ENDSEC
  0
SECTION
  2
ENTITIES
  0
POLYLINE
  5
32
  8
CUT_BORDER
 66
1
 10
0.0
 20
0.0
 30
0.0
 70
1
  0
VERTEX
  5
34
  8
CUT_BORDER
 10
-30.0
 20
-30.0
 30
0.0
 70
0
  0
VERTEX
  5
35
  8
CUT_BORDER
 10
30.0
 20
-30.0
 30
0.0
 70
0
  0
VERTEX
  5
36
  8
CUT_BORDER
 10
30.0
 20
30.0
 30
0.0
 70
0
  0
VERTEX
  5
37
  8
CUT_BORDER
 10
-30.0
 20
30.0
 30
0.0
 70
0
  0
SEQEND
  5
33
  8
CUT_BORDER
  0
POLYLINE
  5
38
  8
MARK
 66
1
 10
0.0
 20
0.0
 30
0.0
 70
1
  0
VERTEX
  5
3A
  8
MARK
 10
-25.0
 20
-25.0
 30
0.0
 70
0
  0
VERTEX
  5
3B
  8
MARK
 10
25.0
 20
-25.0
 30
0.0
 70
0
  0
VERTEX
  5
3C
  8
MARK
 10
25.0
 20
25.0
 30
0.0
 70
0
  0
VERTEX
  5
3D
  8
MARK
 10
-25.0
 20
25.0
 30
0.0
 70
0
  0
SEQEND
  5
39
  8
MARK
  0
LINE
  5
3E
  8
MARK
  6
CENTER
 10
-25.0
 20
0.0
 30
0.0
 11
25.0
 21
0.0
 31
0.0
  0
LINE
  5
3F
  8
MARK
  6
CENTER
 10
0.0
 20
-25.0
 30
0.0
 11
0.0
 21
25.0
 31
0.0
  0
LINE
  5
40
  8
MARK
  6
CONTINUOUS
 10
-25.0
 20
25.0
 30
0.0
 11
-25.0
 21
23.5
 31
0.0
  0
LINE
  5
41
  8
MARK
  6
CONTINUOUS
 10
-25.0
 20
-25.0
 30
0.0
 11
-25.0
 21
-23.5
 31
0.0
  0
LINE
  5
42
  8
MARK
  6
CONTINUOUS
 10
-25.0
 20
-25.0
 30
0.0
 11
-23.5
 21
-25.0
 31
0.0
  0
LINE
  5
43
  8
MARK
  6
CONTINUOUS
 10
25.0
 20
-25.0
 30
0.0
 11
23.5
 21
-25.0
 31
0.0
  0
LINE
  5
44
  8
MARK
  6
CONTINUOUS
 10
-24.0
 20
25.0
 30
0.0
 11
-24.0
 21
24.2
 31
0.0
  0
LINE
  5
45
  8
MARK
  6
CONTINUOUS
 10
-24.0
 20
-25.0
 30
0.0
 11
-24.0
 21
-24.2
 31
0.0
  0
LINE
  5
46
  8
MARK
  6
CONTINUOUS
 10
-25.0
 20
-24.0
 30
0.0
 11
-24.2
 21
-24.0
 31
0.0
  0
LINE
  5
47
  8
MARK
  6
CONTINUOUS
 10
25.0
 20
-24.0
 30
0.0
 11
24.2
 21
-24.0
 31
0.0
  0
LINE
  5
48
  8
MARK
  6
CONTINUOUS
 10
-23.0
 20
25.0
 30
0.0
 11
-23.0
 21
24.2
 31
0.0
  0
LINE
  5
49
  8
MARK
  6
CONTINUOUS
 10
-23.0
 20
-25.0
 30
0.0
 11
-23.0
 21
-24.2
 31
0.0
  0
LINE
  5
4A
  8
MARK
  6
CONTINUOUS
 10
-25.0
 20
-23.0
 30
0.0
 11
-24.2
 21
-23.0
 31
0.0
  0
LINE
  5
4B
  8
MARK
  6
CONTINUOUS
 10
25.0
 20
-23.0
 30
0.0
 11
24.2
 21
-23.0
 31
0.0
  0
LINE
  5
4C
  8
MARK
  6
CONTINUOUS
 10
-22.0
 20
25.0
 30
0.0
 11
-22.0
 21
24.2
 31
0.0
  0
LINE
  5
4D
  8
MARK
  6
CONTINUOUS
 10
-22.0
 20
-25.0
 30
0.0
 11
-22.0
 21
-24.2
 31
0.0
  0
LINE
  5
4E
  8
MARK
  6
CONTINUOUS
 10
-25.0
 20
-22.0
 30
0.0
 11
-24.2
 21
-22.0
 31
0.0
  0
LINE
  5
4F
  8
MARK
  6
CONTINUOUS
 10
25.0
 20
-22.0
 30
0.0
 11
24.2
 21
-22.0
 31
0.0
  0
LINE
  5
50
  8
MARK
  6
CONTINUOUS
 10
-21.0
 20
25.0
 30
0.0
 11
-21.0
 21
24.2
 31
0.0
  0
LINE
  5
51
  8
MARK
  6
CONTINUOUS
 10
-21.0
 20
-25.0
 30
0.0
 11
-21.0
 21
-24.2
 31
0.0
  0
LINE
  5
52
  8
MARK
  6
CONTINUOUS
 10
-25.0
 20
-21.0
 30
0.0
 11
-24.2
 21
-21.0
 31
0.0
  0
LINE
  5
53
  8
MARK
  6
CONTINUOUS
 10
25.0
 20
-21.0
 30
0.0
 11
24.2
 21
-21.0
 31
0.0
  0
LINE
  5
54
  8
MARK
  6
CONTINUOUS
 10
-20.0
 20
25.0
 30
0.0
 11
-20.0
 21
22.5
 31
0.0
  0
LINE
  5
55
  8
MARK
  6
CONTINUOUS
 10
-20.0
 20
-25.0
 30
0.0
 11
-20.0
 21
-22.5
 31
0.0
  0
LINE
  5
56
  8
MARK
  6
CONTINUOUS
 10
-25.0
 20
-20.0
 30
0.0
 11
-22.5
 21
-20.0
 31
0.0
  0
LINE
  5
57
  8
MARK
  6
CONTINUOUS
 10
25.0
 20
-20.0
 30
0.0
 11
22.5
 21
-20.0
 31
0.0
  0
LINE
  5
58
  8
MARK
  6
CONTINUOUS
 10
-19.0
 20
25.0
 30
0.0
 11
-19.0
 21
24.2
 31
0.0
  0
LINE
  5
59
  8
MARK
  6
CONTINUOUS
 10
-19.0
 20
-25.0
 30
0.0
 11
-19.0
 21
-24.2
 31
0.0
  0
LINE
  5
5A
  8
MARK
  6
CONTINUOUS
 10
-25.0
 20
-19.0
 30
0.0
 11
-24.2
 21
-19.0
 31
0.0
  0
LINE
  5
5B
  8
MARK
  6
CONTINUOUS
 10
25.0
 20
-19.0
 30
0.0
 11
24.2
 21
-19.0
 31
0.0
  0
LINE
  5
5C
  8
MARK
  6
CONTINUOUS
 10
-18.0
 20
25.0
 30
0.0
 11
-18.0
 21
24.2
 31
0.0
  0
LINE
  5
5D
  8
MARK
  6
CONTINUOUS
 10
-18.0
 20
-25.0
 30
0.0
 11
-18.0
 21
-24.2
 31
0.0
  0
LINE
  5
5E
  8
MARK
  6
CONTINUOUS
 10
-25.0
 20
-18.0
 30
0.0
 11
-24.2
 21
-18.0
 31
0.0
  0
LINE
  5
5F
  8
MARK
  6
CONTINUOUS
 10
25.0
 20
-18.0
 30
0.0
 11
24.2
 21
-18.0
 31
0.0
  0
LINE
  5
60
  8
MARK
  6
CONTINUOUS
 10
-17.0
 20
25.0
 30
0.0
 11
-17.0
 21
24.2
 31
0.0
  0
LINE
  5
61
  8
MARK
  6
CONTINUOUS
 10
-17.0
 20
-25.0
 30
0.0
 11
-17.0
 21
-24.2
 31
0.0
  0
LINE
  5
62
  8
MARK
  6
CONTINUOUS
 10
-25.0
 20
-17.0
 30
0.0
 11
-24.2
 21
-17.0
 31
0.0
  0
LINE
  5
63
  8
MARK
  6
CONTINUOUS
 10
25.0
 20
-17.0
 30
0.0
 11
24.2
 21
-17.0
 31
0.0
  0
LINE
  5
64
  8
MARK
  6
CONTINUOUS
 10
-16.0
 20
25.0
 30
0.0
 11
-16.0
 21
24.2
 31
0.0
  0
LINE
  5
65
  8
MARK
  6
CONTINUOUS
 10
-16.0
 20
-25.0
 30
0.0
 11
-16.0
 21
-24.2
 31
0.0
  0
LINE
  5
66
  8
MARK
  6
CONTINUOUS
 10
-25.0
 20
-16.0
 30
0.0
 11
-24.2
 21
-16.0
 31
0.0
  0
LINE
  5
67
  8
MARK
  6
CONTINUOUS
 10
25.0
 20
-16.0
 30
0.0
 11
24.2
 21
-16.0
 31
0.0
  0
LINE
  5
68
  8
MARK
  6
CONTINUOUS
 10
-15.0
 20
25.0
 30
0.0
 11
-15.0
 21
23.5
 31
0.0
  0
LINE
  5
69
  8
MARK
  6
CONTINUOUS
 10
-15.0
 20
-25.0
 30
0.0
 11
-15.0
 21
-23.5
 31
0.0
  0
LINE
  5
6A
  8
MARK
  6
CONTINUOUS
 10
-25.0
 20
-15.0
 30
0.0
 11
-23.5
 21
-15.0
 31
0.0
  0
LINE
  5
6B
  8
MARK
  6
CONTINUOUS
 10
25.0
 20
-15.0
 30
0.0
 11
23.5
 21
-15.0
 31
0.0
  0
LINE
  5
6C
  8
MARK
  6
CONTINUOUS
 10
-14.0
 20
25.0
 30
0.0
 11
-14.0
 21
24.2
 31
0.0
  0
LINE
  5
6D
  8
MARK
  6
CONTINUOUS
 10
-14.0
 20
-25.0
 30
0.0
 11
-14.0
 21
-24.2
 31
0.0
  0
LINE
  5
6E
  8
MARK
  6
CONTINUOUS
 10
-25.0
 20
-14.0
 30
0.0
 11
-24.2
 21
-14.0
 31
0.0
  0
LINE
  5
6F
  8
MARK
  6
CONTINUOUS
 10
25.0
 20
-14.0
 30
0.0
 11
24.2
 21
-14.0
 31
0.0
  0
LINE
  5
70
  8
MARK
  6
CONTINUOUS
 10
-13.0
 20
25.0
 30
0.0
 11
-13.0
 21
24.2
 31
0.0
  0
LINE
  5
71
  8
MARK
  6
CONTINUOUS
 10
-13.0
 20
-25.0
 30
0.0
 11
-13.0
 21
-24.2
 31
0.0
  0
LINE
  5
72
  8
MARK
  6
CONTINUOUS
 10
-25.0
 20
-13.0
 30
0.0
 11
-24.2
 21
-13.0
 31
0.0
  0
LINE
  5
73
  8
MARK
  6
CONTINUOUS
 10
25.0
 20
-13.0
 30
0.0
 11
24.2
 21
-13.0
 31
0.0
  0
LINE
  5
74
  8
MARK
  6
CONTINUOUS
 10
-12.0
 20
25.0
 30
0.0
 11
-12.0
 21
24.2
 31
0.0
  0
LINE
  5
75
  8
MARK
  6
CONTINUOUS
 10
-12.0
 20
-25.0
 30
0.0
 11
-12.0
 21
-24.2
 31
0.0
  0
LINE
  5
76
  8
MARK
  6
CONTINUOUS
 10
-25.0
 20
-12.0
 30
0.0
 11
-24.2
 21
-12.0
 31
0.0
  0
LINE
  5
77
  8
MARK
  6
CONTINUOUS
 10
25.0
 20
-12.0
 30
0.0
 11
24.2
 21
-12.0
 31
0.0
  0
LINE
  5
78
  8
MARK
  6
CONTINUOUS
 10
-11.0
 20
25.0
 30
0.0
 11
-11.0
 21
24.2
 31
0.0
  0
LINE
  5
79
  8
MARK
  6
CONTINUOUS
 10
-11.0
 20
-25.0
 30
0.0
 11
-11.0
 21
-24.2
 31
0.0
  0
LINE
  5
7A
  8
MARK
  6
CONTINUOUS
 10
-25.0
 20
-11.0
 30
0.0
 11
-24.2
 21
-11.0
 31
0.0
  0
LINE
  5
7B
  8
MARK
  6
CONTINUOUS
 10
25.0
 20
-11.0
 30
0.0
 11
24.2
 21
-11.0
 31
0.0
  0
LINE
  5
7C
  8
MARK
  6
CONTINUOUS
 10
-10.0
 20
25.0
 30
0.0
 11
-10.0
 21
22.5
 31
0.0
  0
LINE
  5
7D
  8
MARK
  6
CONTINUOUS
 10
-10.0
 20
-25.0
 30
0.0
 11
-10.0
 21
-22.5
 31
0.0
  0
LINE
  5
7E
  8
MARK
  6
CONTINUOUS
 10
-25.0
 20
-10.0
 30
0.0
 11
-22.5
 21
-10.0
 31
0.0
  0
LINE
  5
7F
  8
MARK
  6
CONTINUOUS
 10
25.0
 20
-10.0
 30
0.0
 11
22.5
 21
-10.0
 31
0.0
  0
LINE
  5
80
  8
MARK
  6
CONTINUOUS
 10
-9.0
 20
25.0
 30
0.0
 11
-9.0
 21
24.2
 31
0.0
  0
LINE
  5
81
  8
MARK
  6
CONTINUOUS
 10
-9.0
 20
-25.0
 30
0.0
 11
-9.0
 21
-24.2
 31
0.0
  0
LINE
  5
82
  8
MARK
  6
CONTINUOUS
 10
-25.0
 20
-9.0
 30
0.0
 11
-24.2
 21
-9.0
 31
0.0
  0
LINE
  5
83
  8
MARK
  6
CONTINUOUS
 10
25.0
 20
-9.0
 30
0.0
 11
24.2
 21
-9.0
 31
0.0
  0
LINE
  5
84
  8
MARK
  6
CONTINUOUS
 10
-8.0
 20
25.0
 30
0.0
 11
-8.0
 21
24.2
 31
0.0
  0
LINE
  5
85
  8
MARK
  6
CONTINUOUS
 10
-8.0
 20
-25.0
 30
0.0
 11
-8.0
 21
-24.2
 31
0.0
  0
LINE
  5
86
  8
MARK
  6
CONTINUOUS
 10
-25.0
 20
-8.0
 30
0.0
 11
-24.2
 21
-8.0
 31
0.0
  0
LINE
  5
87
  8
MARK
  6
CONTINUOUS
 10
25.0
 20
-8.0
 30
0.0
 11
24.2
 21
-8.0
 31
0.0
  0
LINE
  5
88
  8
MARK
  6
CONTINUOUS
 10
-7.0
 20
25.0
 30
0.0
 11
-7.0
 21
24.2
 31
0.0
  0
LINE
  5
89
  8
MARK
  6
CONTINUOUS
 10
-7.0
 20
-25.0
 30
0.0
 11
-7.0
 21
-24.2
 31
0.0
  0
LINE
  5
8A
  8
MARK
  6
CONTINUOUS
 10
-25.0
 20
-7.0
 30
0.0
 11
-24.2
 21
-7.0
 31
0.0
  0
LINE
  5
8B
  8
MARK
  6
CONTINUOUS
 10
25.0
 20
-7.0
 30
0.0
 11
24.2
 21
-7.0
 31
0.0
  0
LINE
  5
8C
  8
MARK
  6
CONTINUOUS
 10
-6.0
 20
25.0
 30
0.0
 11
-6.0
 21
24.2
 31
0.0
  0
LINE
  5
8D
  8
MARK
  6
CONTINUOUS
 10
-6.0
 20
-25.0
 30
0.0
 11
-6.0
 21
-24.2
 31
0.0
  0
LINE
  5
8E
  8
MARK
  6
CONTINUOUS
 10
-25.0
 20
-6.0
 30
0.0
 11
-24.2
 21
-6.0
 31
0.0
  0
LINE
  5
8F
  8
MARK
  6
CONTINUOUS
 10
25.0
 20
-6.0
 30
0.0
 11
24.2
 21
-6.0
 31
0.0
  0
LINE
  5
90
  8
MARK
  6
CONTINUOUS
 10
-5.0
 20
25.0
 30
0.0
 11
-5.0
 21
23.5
 31
0.0
  0
LINE
  5
91
  8
MARK
  6
CONTINUOUS
 10
-5.0
 20
-25.0
 30
0.0
 11
-5.0
 21
-23.5
 31
0.0
  0
LINE
  5
92
  8
MARK
  6
CONTINUOUS
 10
-25.0
 20
-5.0
 30
0.0
 11
-23.5
 21
-5.0
 31
0.0
  0
LINE
  5
93
  8
MARK
  6
CONTINUOUS
 10
25.0
 20
-5.0
 30
0.0
 11
23.5
 21
-5.0
 31
0.0
  0
LINE
  5
94
  8
MARK
  6
CONTINUOUS
 10
-4.0
 20
25.0
 30
0.0
 11
-4.0
 21
24.2
 31
0.0
  0
LINE
  5
95
  8
MARK
  6
CONTINUOUS
 10
-4.0
 20
-25.0
 30
0.0
 11
-4.0
 21
-24.2
 31
0.0
  0
LINE
  5
96
  8
MARK
  6
CONTINUOUS
 10
-25.0
 20
-4.0
 30
0.0
 11
-24.2
 21
-4.0
 31
0.0
  0
LINE
  5
97
  8
MARK
  6
CONTINUOUS
 10
25.0
 20
-4.0
 30
0.0
 11
24.2
 21
-4.0
 31
0.0
  0
LINE
  5
98
  8
MARK
  6
CONTINUOUS
 10
-3.0
 20
25.0
 30
0.0
 11
-3.0
 21
24.2
 31
0.0
  0
LINE
  5
99
  8
MARK
  6
CONTINUOUS
 10
-3.0
 20
-25.0
 30
0.0
 11
-3.0
 21
-24.2
 31
0.0
  0
LINE
  5
9A
  8
MARK
  6
CONTINUOUS
 10
-25.0
 20
-3.0
 30
0.0
 11
-24.2
 21
-3.0
 31
0.0
  0
LINE
  5
9B
  8
MARK
  6
CONTINUOUS
 10
25.0
 20
-3.0
 30
0.0
 11
24.2
 21
-3.0
 31
0.0
  0
LINE
  5
9C
  8
MARK
  6
CONTINUOUS
 10
-2.0
 20
25.0
 30
0.0
 11
-2.0
 21
24.2
 31
0.0
  0
LINE
  5
9D
  8
MARK
  6
CONTINUOUS
 10
-2.0
 20
-25.0
 30
0.0
 11
-2.0
 21
-24.2
 31
0.0
  0
LINE
  5
9E
  8
MARK
  6
CONTINUOUS
 10
-25.0
 20
-2.0
 30
0.0
 11
-24.2
 21
-2.0
 31
0.0
  0
LINE
  5
9F
  8
MARK
  6
CONTINUOUS
 10
25.0
 20
-2.0
 30
0.0
 11
24.2
 21
-2.0
 31
0.0
  0
LINE
  5
A0
  8
MARK
  6
CONTINUOUS
 10
-1.0
 20
25.0
 30
0.0
 11
-1.0
 21
24.2
 31
0.0
  0
LINE
  5
A1
  8
MARK
  6
CONTINUOUS
 10
-1.0
 20
-25.0
 30
0.0
 11
-1.0
 21
-24.2
 31
0.0
  0
LINE
  5
A2
  8
MARK
  6
CONTINUOUS
 10
-25.0
 20
-1.0
 30
0.0
 11
-24.2
 21
-1.0
 31
0.0
  0
LINE
  5
A3
  8
MARK
  6
CONTINUOUS
 10
25.0
 20
-1.0
 30
0.0
 11
24.2
 21
-1.0
 31
0.0
  0
LINE
  5
A4
  8
MARK
  6
CONTINUOUS
 10
1.0
 20
25.0
 30
0.0
 11
1.0
 21
24.2
 31
0.0
  0
LINE
  5
A5
  8
MARK
  6
CONTINUOUS
 10
1.0
 20
-25.0
 30
0.0
 11
1.0
 21
-24.2
 31
0.0
  0
LINE
  5
A6
  8
MARK
  6
CONTINUOUS
 10
-25.0
 20
1.0
 30
0.0
 11
-24.2
 21
1.0
 31
0.0
  0
LINE
  5
A7
  8
MARK
  6
CONTINUOUS
 10
25.0
 20
1.0
 30
0.0
 11
24.2
 21
1.0
 31
0.0
  0
LINE
  5
A8
  8
MARK
  6
CONTINUOUS
 10
2.0
 20
25.0
 30
0.0
 11
2.0
 21
24.2
 31
0.0
  0
LINE
  5
A9
  8
MARK
  6
CONTINUOUS
 10
2.0
 20
-25.0
 30
0.0
 11
2.0
 21
-24.2
 31
0.0
  0
LINE
  5
AA
  8
MARK
  6
CONTINUOUS
 10
-25.0
 20
2.0
 30
0.0
 11
-24.2
 21
2.0
 31
0.0
  0
LINE
  5
AB
  8
MARK
  6
CONTINUOUS
 10
25.0
 20
2.0
 30
0.0
 11
24.2
 21
2.0
 31
0.0
  0
LINE
  5
AC
  8
MARK
  6
CONTINUOUS
 10
3.0
 20
25.0
 30
0.0
 11
3.0
 21
24.2
 31
0.0
  0
LINE
  5
AD
  8
MARK
  6
CONTINUOUS
 10
3.0
 20
-25.0
 30
0.0
 11
3.0
 21
-24.2
 31
0.0
  0
LINE
  5
AE
  8
MARK
  6
CONTINUOUS
 10
-25.0
 20
3.0
 30
0.0
 11
-24.2
 21
3.0
 31
0.0
  0
LINE
  5
AF
  8
MARK
  6
CONTINUOUS
 10
25.0
 20
3.0
 30
0.0
 11
24.2
 21
3.0
 31
0.0
  0
LINE
  5
B0
  8
MARK
  6
CONTINUOUS
 10
4.0
 20
25.0
 30
0.0
 11
4.0
 21
24.2
 31
0.0
  0
LINE
  5
B1
  8
MARK
  6
CONTINUOUS
 10
4.0
 20
-25.0
 30
0.0
 11
4.0
 21
-24.2
 31
0.0
  0
LINE
  5
B2
  8
MARK
  6
CONTINUOUS
 10
-25.0
 20
4.0
 30
0.0
 11
-24.2
 21
4.0
 31
0.0
  0
LINE
  5
B3
  8
MARK
  6
CONTINUOUS
 10
25.0
 20
4.0
 30
0.0
 11
24.2
 21
4.0
 31
0.0
  0
LINE
  5
B4
  8
MARK
  6
CONTINUOUS
 10
5.0
 20
25.0
 30
0.0
 11
5.0
 21
23.5
 31
0.0
  0
LINE
  5
B5
  8
MARK
  6
CONTINUOUS
 10
5.0
 20
-25.0
 30
0.0
 11
5.0
 21
-23.5
 31
0.0
  0
LINE
  5
B6
  8
MARK
  6
CONTINUOUS
 10
-25.0
 20
5.0
 30
0.0
 11
-23.5
 21
5.0
 31
0.0
  0
LINE
  5
B7
  8
MARK
  6
CONTINUOUS
 10
25.0
 20
5.0
 30
0.0
 11
23.5
 21
5.0
 31
0.0
  0
LINE
  5
B8
  8
MARK
  6
CONTINUOUS
 10
6.0
 20
25.0
 30
0.0
 11
6.0
 21
24.2
 31
0.0
  0
LINE
  5
B9
  8
MARK
  6
CONTINUOUS
 10
6.0
 20
-25.0
 30
0.0
 11
6.0
 21
-24.2
 31
0.0
  0
LINE
  5
BA
  8
MARK
  6
CONTINUOUS
 10
-25.0
 20
6.0
 30
0.0
 11
-24.2
 21
6.0
 31
0.0
  0
LINE
  5
BB
  8
MARK
  6
CONTINUOUS
 10
25.0
 20
6.0
 30
0.0
 11
24.2
 21
6.0
 31
0.0
  0
LINE
  5
BC
  8
MARK
  6
CONTINUOUS
 10
7.0
 20
25.0
 30
0.0
 11
7.0
 21
24.2
 31
0.0
  0
LINE
  5
BD
  8
MARK
  6
CONTINUOUS
 10
7.0
 20
-25.0
 30
0.0
 11
7.0
 21
-24.2
 31
0.0
  0
LINE
  5
BE
  8
MARK
  6
CONTINUOUS
 10
-25.0
 20
7.0
 30
0.0
 11
-24.2
 21
7.0
 31
0.0
  0
LINE
  5
BF
  8
MARK
  6
CONTINUOUS
 10
25.0
 20
7.0
 30
0.0
 11
24.2
 21
7.0
 31
0.0
  0
LINE
  5
C0
  8
MARK
  6
CONTINUOUS
 10
8.0
 20
25.0
 30
0.0
 11
8.0
 21
24.2
 31
0.0
  0
LINE
  5
C1
  8
MARK
  6
CONTINUOUS
 10
8.0
 20
-25.0
 30
0.0
 11
8.0
 21
-24.2
 31
0.0
  0
LINE
  5
C2
  8
MARK
  6
CONTINUOUS
 10
-25.0
 20
8.0
 30
0.0
 11
-24.2
 21
8.0
 31
0.0
  0
LINE
  5
C3
  8
MARK
  6
CONTINUOUS
 10
25.0
 20
8.0
 30
0.0
 11
24.2
 21
8.0
 31
0.0
  0
LINE
  5
C4
  8
MARK
  6
CONTINUOUS
 10
9.0
 20
25.0
 30
0.0
 11
9.0
 21
24.2
 31
0.0
  0
LINE
  5
C5
  8
MARK
  6
CONTINUOUS
 10
9.0
 20
-25.0
 30
0.0
 11
9.0
 21
-24.2
 31
0.0
  0
LINE
  5
C6
  8
MARK
  6
CONTINUOUS
 10
-25.0
 20
9.0
 30
0.0
 11
-24.2
 21
9.0
 31
0.0
  0
LINE
  5
C7
  8
MARK
  6
CONTINUOUS
 10
25.0
 20
9.0
 30
0.0
 11
24.2
 21
9.0
 31
0.0
  0
LINE
  5
C8
  8
MARK
  6
CONTINUOUS
 10
10.0
 20
25.0
 30
0.0
 11
10.0
 21
22.5
 31
0.0
  0
LINE
  5
C9
  8
MARK
  6
CONTINUOUS
 10
10.0
 20
-25.0
 30
0.0
 11
10.0
 21
-22.5
 31
0.0
  0
LINE
  5
CA
  8
MARK
  6
CONTINUOUS
 10
-25.0
 20
10.0
 30
0.0
 11
-22.5
 21
10.0
 31
0.0
  0
LINE
  5
CB
  8
MARK
  6
CONTINUOUS
 10
25.0
 20
10.0
 30
0.0
 11
22.5
 21
10.0
 31
0.0
  0
LINE
  5
CC
  8
MARK
  6
CONTINUOUS
 10
11.0
 20
25.0
 30
0.0
 11
11.0
 21
24.2
 31
0.0
  0
LINE
  5
CD
  8
MARK
  6
CONTINUOUS
 10
11.0
 20
-25.0
 30
0.0
 11
11.0
 21
-24.2
 31
0.0
  0
LINE
  5
CE
  8
MARK
  6
CONTINUOUS
 10
-25.0
 20
11.0
 30
0.0
 11
-24.2
 21
11.0
 31
0.0
  0
LINE
  5
CF
  8
MARK
  6
CONTINUOUS
 10
25.0
 20
11.0
 30
0.0
 11
24.2
 21
11.0
 31
0.0
  0
LINE
  5
D0
  8
MARK
  6
CONTINUOUS
 10
12.0
 20
25.0
 30
0.0
 11
12.0
 21
24.2
 31
0.0
  0
LINE
  5
D1
  8
MARK
  6
CONTINUOUS
 10
12.0
 20
-25.0
 30
0.0
 11
12.0
 21
-24.2
 31
0.0
  0
LINE
  5
D2
  8
MARK
  6
CONTINUOUS
 10
-25.0
 20
12.0
 30
0.0
 11
-24.2
 21
12.0
 31
0.0
  0
LINE
  5
D3
  8
MARK
  6
CONTINUOUS
 10
25.0
 20
12.0
 30
0.0
 11
24.2
 21
12.0
 31
0.0
  0
LINE
  5
D4
  8
MARK
  6
CONTINUOUS
 10
13.0
 20
25.0
 30
0.0
 11
13.0
 21
24.2
 31
0.0
  0
LINE
  5
D5
  8
MARK
  6
CONTINUOUS
 10
13.0
 20
-25.0
 30
0.0
 11
13.0
 21
-24.2
 31
0.0
  0
LINE
  5
D6
  8
MARK
  6
CONTINUOUS
 10
-25.0
 20
13.0
 30
0.0
 11
-24.2
 21
13.0
 31
0.0
  0
LINE
  5
D7
  8
MARK
  6
CONTINUOUS
 10
25.0
 20
13.0
 30
0.0
 11
24.2
 21
13.0
 31
0.0
  0
LINE
  5
D8
  8
MARK
  6
CONTINUOUS
 10
14.0
 20
25.0
 30
0.0
 11
14.0
 21
24.2
 31
0.0
  0
LINE
  5
D9
  8
MARK
  6
CONTINUOUS
 10
14.0
 20
-25.0
 30
0.0
 11
14.0
 21
-24.2
 31
0.0
  0
LINE
  5
DA
  8
MARK
  6
CONTINUOUS
 10
-25.0
 20
14.0
 30
0.0
 11
-24.2
 21
14.0
 31
0.0
  0
LINE
  5
DB
  8
MARK
  6
CONTINUOUS
 10
25.0
 20
14.0
 30
0.0
 11
24.2
 21
14.0
 31
0.0
  0
LINE
  5
DC
  8
MARK
  6
CONTINUOUS
 10
15.0
 20
25.0
 30
0.0
 11
15.0
 21
23.5
 31
0.0
  0
LINE
  5
DD
  8
MARK
  6
CONTINUOUS
 10
15.0
 20
-25.0
 30
0.0
 11
15.0
 21
-23.5
 31
0.0
  0
LINE
  5
DE
  8
MARK
  6
CONTINUOUS
 10
-25.0
 20
15.0
 30
0.0
 11
-23.5
 21
15.0
 31
0.0
  0
LINE
  5
DF
  8
MARK
  6
CONTINUOUS
 10
25.0
 20
15.0
 30
0.0
 11
23.5
 21
15.0
 31
0.0
  0
LINE
  5
E0
  8
MARK
  6
CONTINUOUS
 10
16.0
 20
25.0
 30
0.0
 11
16.0
 21
24.2
 31
0.0
  0
LINE
  5
E1
  8
MARK
  6
CONTINUOUS
 10
16.0
 20
-25.0
 30
0.0
 11
16.0
 21
-24.2
 31
0.0
  0
LINE
  5
E2
  8
MARK
  6
CONTINUOUS
 10
-25.0
 20
16.0
 30
0.0
 11
-24.2
 21
16.0
 31
0.0
  0
LINE
  5
E3
  8
MARK
  6
CONTINUOUS
 10
25.0
 20
16.0
 30
0.0
 11
24.2
 21
16.0
 31
0.0
  0
LINE
  5
E4
  8
MARK
  6
CONTINUOUS
 10
17.0
 20
25.0
 30
0.0
 11
17.0
 21
24.2
 31
0.0
  0
LINE
  5
E5
  8
MARK
  6
CONTINUOUS
 10
17.0
 20
-25.0
 30
0.0
 11
17.0
 21
-24.2
 31
0.0
  0
LINE
  5
E6
  8
MARK
  6
CONTINUOUS
 10
-25.0
 20
17.0
 30
0.0
 11
-24.2
 21
17.0
 31
0.0
  0
LINE
  5
E7
  8
MARK
  6
CONTINUOUS
 10
25.0
 20
17.0
 30
0.0
 11
24.2
 21
17.0
 31
0.0
  0
LINE
  5
E8
  8
MARK
  6
CONTINUOUS
 10
18.0
 20
25.0
 30
0.0
 11
18.0
 21
24.2
 31
0.0
  0
LINE
  5
E9
  8
MARK
  6
CONTINUOUS
 10
18.0
 20
-25.0
 30
0.0
 11
18.0
 21
-24.2
 31
0.0
  0
LINE
  5
EA
  8
MARK
  6
CONTINUOUS
 10
-25.0
 20
18.0
 30
0.0
 11
-24.2
 21
18.0
 31
0.0
  0
LINE
  5
EB
  8
MARK
  6
CONTINUOUS
 10
25.0
 20
18.0
 30
0.0
 11
24.2
 21
18.0
 31
0.0
  0
LINE
  5
EC
  8
MARK
  6
CONTINUOUS
 10
19.0
 20
25.0
 30
0.0
 11
19.0
 21
24.2
 31
0.0
  0
LINE
  5
ED
  8
MARK
  6
CONTINUOUS
 10
19.0
 20
-25.0
 30
0.0
 11
19.0
 21
-24.2
 31
0.0
  0
LINE
  5
EE
  8
MARK
  6
CONTINUOUS
 10
-25.0
 20
19.0
 30
0.0
 11
-24.2
 21
19.0
 31
0.0
  0
LINE
  5
EF
  8
MARK
  6
CONTINUOUS
 10
25.0
 20
19.0
 30
0.0
 11
24.2
 21
19.0
 31
0.0
  0
LINE
  5
F0
  8
MARK
  6
CONTINUOUS
 10
20.0
 20
25.0
 30
0.0
 11
20.0
 21
22.5
 31
0.0
  0
LINE
  5
F1
  8
MARK
  6
CONTINUOUS
 10
20.0
 20
-25.0
 30
0.0
 11
20.0
 21
-22.5
 31
0.0
  0
LINE
  5
F2
  8
MARK
  6
CONTINUOUS
 10
-25.0
 20
20.0
 30
0.0
 11
-22.5
 21
20.0
 31
0.0
  0
LINE
  5
F3
  8
MARK
  6
CONTINUOUS
 10
25.0
 20
20.0
 30
0.0
 11
22.5
 21
20.0
 31
0.0
  0
LINE
  5
F4
  8
MARK
  6
CONTINUOUS
 10
21.0
 20
25.0
 30
0.0
 11
21.0
 21
24.2
 31
0.0
  0
LINE
  5
F5
  8
MARK
  6
CONTINUOUS
 10
21.0
 20
-25.0
 30
0.0
 11
21.0
 21
-24.2
 31
0.0
  0
LINE
  5
F6
  8
MARK
  6
CONTINUOUS
 10
-25.0
 20
21.0
 30
0.0
 11
-24.2
 21
21.0
 31
0.0
  0
LINE
  5
F7
  8
MARK
  6
CONTINUOUS
 10
25.0
 20
21.0
 30
0.0
 11
24.2
 21
21.0
 31
0.0
  0
LINE
  5
F8
  8
MARK
  6
CONTINUOUS
 10
22.0
 20
25.0
 30
0.0
 11
22.0
 21
24.2
 31
0.0
  0
LINE
  5
F9
  8
MARK
  6
CONTINUOUS
 10
22.0
 20
-25.0
 30
0.0
 11
22.0
 21
-24.2
 31
0.0
  0
LINE
  5
FA
  8
MARK
  6
CONTINUOUS
 10
-25.0
 20
22.0
 30
0.0
 11
-24.2
 21
22.0
 31
0.0
  0
LINE
  5
FB
  8
MARK
  6
CONTINUOUS
 10
25.0
 20
22.0
 30
0.0
 11
24.2
 21
22.0
 31
0.0
  0
LINE
  5
FC
  8
MARK
  6
CONTINUOUS
 10
23.0
 20
25.0
 30
0.0
 11
23.0
 21
24.2
 31
0.0
  0
LINE
  5
FD
  8
MARK
  6
CONTINUOUS
 10
23.0
 20
-25.0
 30
0.0
 11
23.0
 21
-24.2
 31
0.0
  0
LINE
  5
FE
  8
MARK
  6
CONTINUOUS
 10
-25.0
 20
23.0
 30
0.0
 11
-24.2
 21
23.0
 31
0.0
  0
LINE
  5
FF
  8
MARK
  6
CONTINUOUS
 10
25.0
 20
23.0
 30
0.0
 11
24.2
 21
23.0
 31
0.0
  0
LINE
  5
100
  8
MARK
  6
CONTINUOUS
 10
24.0
 20
25.0
 30
0.0
 11
24.0
 21
24.2
 31
0.0
  0
LINE
  5
101
  8
MARK
  6
CONTINUOUS
 10
24.0
 20
-25.0
 30
0.0
 11
24.0
 21
-24.2
 31
0.0
  0
LINE
  5
102
  8
MARK
  6
CONTINUOUS
 10
-25.0
 20
24.0
 30
0.0
 11
-24.2
 21
24.0
 31
0.0
  0
LINE
  5
103
  8
MARK
  6
CONTINUOUS
 10
25.0
 20
24.0
 30
0.0
 11
24.2
 21
24.0
 31
0.0
  0
LINE
  5
104
  8
MARK
  6
CONTINUOUS
 10
25.0
 20
25.0
 30
0.0
 11
25.0
 21
23.5
 31
0.0
  0
LINE
  5
105
  8
MARK
  6
CONTINUOUS
 10
25.0
 20
-25.0
 30
0.0
 11
25.0
 21
-23.5
 31
0.0
  0
LINE
  5
106
  8
MARK
  6
CONTINUOUS
 10
-25.0
 20
25.0
 30
0.0
 11
-23.5
 21
25.0
 31
0.0
  0
LINE
  5
107
  8
MARK
  6
CONTINUOUS
 10
25.0
 20
25.0
 30
0.0
 11
23.5
 21
25.0
 31
0.0
  0
TEXT
  5
108
  8
MARK
 10
-21.0
 20
26.5
 30
0.0
 40
1.5
  1
-20
  0
TEXT
  5
109
  8
MARK
 10
-30.5
 20
-20.75
 30
0.0
 40
1.5
  1
-20
  0
TEXT
  5
10A
  8
MARK
 10
-11.0
 20
26.5
 30
0.0
 40
1.5
  1
-10
  0
TEXT
  5
10B
  8
MARK
 10
-30.5
 20
-10.75
 30
0.0
 40
1.5
  1
-10
  0
TEXT
  5
10C
  8
MARK
 10
-1.0
 20
26.5
 30
0.0
 40
1.5
  1
0
  0
TEXT
  5
10D
  8
MARK
 10
-30.5
 20
-0.75
 30
0.0
 40
1.5
  1
0
  0
TEXT
  5
10E
  8
MARK
 10
9.0
 20
26.5
 30
0.0
 40
1.5
  1
10
  0
TEXT
  5
10F
  8
MARK
 10
-30.5
 20
9.25
 30
0.0
 40
1.5
  1
10
  0
TEXT
  5
110
  8
MARK
 10
19.0
 20
26.5
 30
0.0
 40
1.5
  1
20
  0
TEXT
  5
111
  8
MARK
 10
-30.5
 20
19.25
 30
0.0
 40
1.5
  1
20
  0
CIRCLE
  5
112
  8
MOUNT_HOLES
 10
-13.5
 20
0.0
 30
0.0
 40
1.1
  0
CIRCLE
  5
113
  8
MOUNT_HOLES
 10
13.5
 20
0.0
 30
0.0
 40
1.1
  0
POLYLINE
  5
114
  8
SERVO_CUTOUT
 66
1
 10
0.0
 20
0.0
 30
0.0
 70
1
  0
VERTEX
  5
116
  8
SERVO_CUTOUT
 10
-11.25
 20
-6.05
 30
0.0
 70
0
  0
VERTEX
  5
117
  8
SERVO_CUTOUT
 10
11.25
 20
-6.05
 30
0.0
 70
0
  0
VERTEX
  5
118
  8
SERVO_CUTOUT
 10
11.25
 20
6.05
 30
0.0
 70
0
  0
VERTEX
  5
119
  8
SERVO_CUTOUT
 10
-11.25
 20
6.05
 30
0.0
 70
0
  0
SEQEND
  5
115
  8
SERVO_CUTOUT
  0
ENDSEC
  0
EOF
